<svg width="25" height="21" viewBox="0 0 25 21" fill="none" xmlns="http://www.w3.org/2000/svg">
<path d="M17.7471 20.2538H17.7808C18.4154 20.2538 19.0151 20.0519 19.4695 19.6848L22.7291 17.0517C22.8409 16.9616 22.9294 16.8545 22.9899 16.7367C23.0503 16.619 23.0814 16.4927 23.0814 16.3652C23.0814 16.2377 23.0503 16.1114 22.9899 15.9936C22.9294 15.8758 22.8409 15.7688 22.7291 15.6788L17.9214 11.7949C17.8098 11.7047 17.6774 11.6331 17.5316 11.5843C17.3858 11.5355 17.2294 11.5103 17.0716 11.5103C16.9138 11.5103 16.7575 11.5355 16.6117 11.5843C16.4658 11.6331 16.3334 11.7047 16.2218 11.7949L14.306 13.3427C13.4178 13.129 11.7603 12.6436 10.7098 11.7949C9.65932 10.9464 9.05836 9.60744 8.79394 8.88991L10.7098 7.34223C10.8215 7.25214 10.9101 7.14513 10.9706 7.02734C11.0311 6.90956 11.0622 6.78329 11.0622 6.65577C11.0622 6.52826 11.0311 6.40199 10.9706 6.2842C10.9101 6.16641 10.8215 6.05941 10.7098 5.96932L5.9021 2.08554C5.67232 1.91034 5.3683 1.81275 5.05233 1.81275C4.73636 1.81275 4.43235 1.91034 4.20258 2.08554L0.944148 4.71874C0.487411 5.0877 0.230203 5.59453 0.239824 6.11205C0.267458 7.49466 0.720589 12.297 5.4057 16.0817C10.0908 19.8664 16.0356 20.2315 17.7471 20.2538ZM5.05354 4.14491L8.16173 6.65577L6.60764 7.9112C6.4662 8.02513 6.36231 8.16584 6.30543 8.32051C6.24853 8.47517 6.24045 8.63887 6.2819 8.7967C6.31075 8.90836 7.01629 11.5561 9.01148 13.1679C11.0067 14.7796 14.2843 15.3496 14.4225 15.3729C14.618 15.4066 14.8206 15.4001 15.0121 15.3542C15.2037 15.3081 15.3778 15.2241 15.5187 15.1097L17.0728 13.8543L20.181 16.3652L17.77 18.312C16.27 18.2916 11.1377 17.9663 7.10523 14.7078C3.05955 11.4396 2.66771 7.27911 2.64367 6.09166L5.05354 4.14491ZM21.8734 9.57345H24.2771C24.2771 4.59252 19.6221 0.835938 13.4478 0.835938V2.77783C18.33 2.77783 21.8734 5.63531 21.8734 9.57345Z" fill="#E1E3E6"/>
</svg>
