<svg width="95" height="96" viewBox="0 0 95 96" fill="none" xmlns="http://www.w3.org/2000/svg">
<mask id="mask0_148_1722" style="mask-type:luminance" maskUnits="userSpaceOnUse" x="0" y="0" width="95" height="96">
<path d="M47.5094 95.4969C73.6496 95.4969 94.8404 74.3061 94.8404 48.166C94.8404 22.0258 73.6496 0.834961 47.5094 0.834961C21.3692 0.834961 0.178436 22.0258 0.178436 48.166C0.178436 74.3061 21.3692 95.4969 47.5094 95.4969Z" fill="white"/>
</mask>
<g mask="url(#mask0_148_1722)">
<path d="M0.178436 0.834961H94.8404V95.4969H0.178436V0.834961Z" fill="#FFE033"/>
<path d="M55.5557 73.3935C64.8489 68.0355 71.8544 59.4554 75.2454 49.2783L85.7529 52.8991C81.5107 65.6261 72.7556 76.3595 61.1408 83.0727C40.4571 94.9764 15.845 91.5449 0.178436 76.9433V58.9575L0.888401 60.2828C11.2302 78.1502 35.369 85.0606 55.5557 73.3935Z" fill="black"/>
<path d="M0.178436 26.0387C3.1765 20.3561 7.72197 15.6384 13.2891 12.4311C28.9793 3.36717 47.2964 8.99956 54.8931 22.1576C62.0164 34.511 58.0642 50.1302 46.1132 57.0405C35.1797 63.3592 22.6843 59.5254 17.5489 50.6508C12.9815 42.7229 15.5137 32.9727 22.7553 28.8076C29.145 25.1158 35.7713 27.4823 38.2562 31.7658C40.3861 35.5049 39.0845 39.2441 36.647 40.664C35.795 41.1373 35.369 41.1373 34.8957 41.1373C35.0663 40.0336 34.8991 38.904 34.4161 37.897C33.9332 36.89 33.157 36.0526 32.1895 35.4946C31.222 34.9366 30.1085 34.6842 28.995 34.7706C27.8815 34.8569 26.8201 35.2778 25.9502 35.9782C25.1346 36.655 24.4753 37.5005 24.0178 38.4565C23.5602 39.4125 23.3152 40.4562 23.2996 41.5159C23.2523 43.2435 23.7019 45.0184 24.6249 46.604C28.2694 52.8991 36.505 53.5853 42.2084 50.2958C50.5623 45.4681 52.6212 34.5583 47.8407 26.2517C41.948 16.0755 28.293 12.7624 17.1939 19.1521C4.29623 26.6304 0.533418 43.3145 7.96438 56.2122C16.3893 70.7902 35.866 75.7836 51.6746 66.6724C69.1634 56.5672 74.5591 34.0613 64.4776 16.6198C60.4681 9.71583 54.4387 4.20674 47.2018 0.834961L11.4905 0.834961C7.37012 2.72355 3.55685 5.22052 0.178436 8.24226L0.178436 26.0387Z" fill="black"/>
</g>
</svg>
