<svg width="95" height="96" viewBox="0 0 95 96" fill="none" xmlns="http://www.w3.org/2000/svg">
<mask id="mask0_148_1721" style="mask-type:alpha" maskUnits="userSpaceOnUse" x="0" y="0" width="95" height="96">
<circle cx="47.439" cy="48.166" r="47.331" fill="#2FE52F"/>
</mask>
<g mask="url(#mask0_148_1721)">
<circle cx="47.439" cy="48.166" r="47.331" fill="#2FE52F"/>
<path d="M73.3346 73.0448C73.069 72.6833 70.7699 71.0826 69.6626 69.8621C68.5554 68.6416 67.2414 66.9821 64.4323 65.8976C61.0518 64.717 55.0408 63.5833 55.0408 63.5833L56.6558 57.4783H57.6549C62.4458 57.4783 66.7571 55.3096 66.7571 51.0564C66.7571 49.6905 66.6372 48.9111 66.6372 48.9111C66.6372 48.9111 72.4577 44.522 72.4577 37.0815C72.4577 30.8662 65.4195 26.6201 65.4195 23.0313C65.4195 22.137 66.1811 21.2568 67.7021 21.1089L70.4972 20.7545C71.1625 20.67 71.2047 19.7217 70.5489 19.5809L67.876 18.9988C67.54 18.9261 67.2226 18.7805 66.9452 18.574L66.6725 18.3698C66.0472 17.8816 65.6241 17.4004 63.9551 17.4004C62.2742 17.4004 60.6968 18.459 60.6968 21.8506C60.6968 27.4722 67.5705 30.9694 67.5705 36.1449C67.5705 38.1283 66.0543 40.29 62.8877 40.29C59.009 40.29 55.8895 35.4924 47.5866 35.4924C44.8032 35.4924 42.1657 36.0323 40.0099 37.1496C35.9808 35.199 22.9247 38.5015 22.9247 49.7749C22.9247 51.6315 23.5734 53.2581 25.0943 53.2581C25.6444 53.2581 26.2697 52.9671 26.4883 52.8567C26.7587 52.7207 27.565 52.3145 27.565 52.3145C27.565 52.3145 28.5664 53.676 30.3084 53.676C33.9075 53.676 35.7317 50.7396 35.7317 50.7396L38.2423 52.6948L33.2914 56.1287C32.8777 56.415 32.5651 56.8235 32.3959 57.2999L28.101 69.0334C27.9199 69.5334 27.6895 69.6391 27.3111 69.7752C26.7963 69.9559 24.422 70.5919 25.0379 72.5801C23.4019 72.0191 22.2923 74.683 21.8809 75.9835C21.4672 77.2838 21.3026 79.1874 21.4741 79.6684C21.4741 79.6684 21.8362 80.4712 22.5156 80.2342C22.6049 80.2037 22.6801 80.1473 22.7507 80.084C23.6863 79.2647 23.9237 79.0113 25.6304 77.4786C28.3102 75.0681 30.9455 74.0799 32.9483 69.4678C34.7608 65.2921 36.9446 60.586 36.9446 60.586C37.2666 59.9498 37.8543 59.4922 38.5478 59.3303L50.2171 56.6381L49.6599 65.468C49.5964 66.4633 50.2877 67.3482 51.2678 67.5289L62.4458 69.4653C63.2216 71.7303 64.3452 72.2138 65.6053 71.3993C65.4806 72.0707 65.5088 72.7161 66.8065 73.432C68.1041 74.1479 69.4816 74.3474 70.5865 74.439C71.2331 74.493 71.7596 74.4883 72.1781 74.4343C72.681 74.3685 73.2147 74.155 73.4169 73.6903C73.4944 73.5001 73.5061 73.2772 73.3346 73.0448Z" fill="black"/>
<path d="M42.7229 38.8496L29.0695 45.6798L30.0498 49.3321L40.2804 44.1823L37.4642 48.358L40.6895 50.8625L47.8263 46.5201C46.9989 47.7031 45.2453 50.44 47.6478 52.6814C51.3573 56.1412 58.9808 50.1794 62.7163 47.06L60.8545 44.4969C56.9122 47.635 51.6182 50.7122 50.5886 49.7945C49.566 48.8837 52.5162 45.5741 54.4179 43.4407L54.4486 43.4077L51.2375 40.2109L42.9579 45.4945L45.5744 41.7202L42.7229 38.8496Z" fill="#FFE033"/>
</g>
</svg>
